<svg width="180" height="22" fill="none" xmlns="http://www.w3.org/2000/svg"><path d="M22.855.407c-5.69 7.62 7.404 10.24-.066 16.085 5.139-.548 6.025-6.294 4.103-8.388-1.666-1.814-4.558-3.421-4.037-7.697z" fill="#D5AB61"/><path d="M24.82.952c-1.794 3.164-.056 5.075 1.273 7.143 1.32 2.058 1.665 5.618-2.104 7.812 3.915 1.788 8.202-4.897 5.36-8.231-1.98-2.323-4.398-3.573-4.53-6.724z" fill="#148DC9"/><path d="M24.776 6.032c.387.705.874 1.376 1.317 2.063 1.066 1.66 1.495 4.291-.352 6.4 1.716-1.948 1.834-4.342.55-6.36-.433-.68-.996-1.266-1.515-2.103z" fill="#0D76AB"/><path d="M27.381 2.059c-1.445 4.183 2.36 4.52 1.652 8.673a6.989 6.989 0 0 1-3.192 4.724c4.744-.831 6.199-6.22 5.254-8.743a8.682 8.682 0 0 0-.835-.822c-1.57-1.347-2.312-1.39-2.879-3.832z" fill="#1994D1"/><path d="M28.1 6.68c.633 1.04 1.26 2.144.934 4.052a6.934 6.934 0 0 1-.662 1.977c1.137-1.769 1.394-3.906-.273-6.03z" fill="#1282BA"/><path d="M30.676 6.274c.77 8.5-7.827 9.644-8.645 9.576.401.784 8.486 2.543 11.007-1.217.159-.669.242-1.363.242-2.081 0-2.472-1-4.703-2.604-6.278z" fill="#239DD8"/><path d="M30.724 7.456c-.048 3.992-2.332 6.136-4.555 7.256 2.872-1.287 4.906-3.9 4.555-7.256z" fill="#148DC9"/><path d="M30.267 19.21c-2.784.54-6.973-2.367-9.05-3.712 3.143 1.369 9.686.947 12.058-3.213.003.089.005.178.005.267 0 2.679-1.172 5.072-3.013 6.658z" fill="#35ACE2"/><path d="M25.72 16.182c2.44-.117 5.047-.936 6.706-2.74-1.367 1.865-3.683 2.664-6.707 2.74z" fill="#1994D1"/><path d="M20.154 14.065c.683 2.531 4.353 6.278 7.313 6.734 1.791-.59 3.32-1.79 4.36-3.366-3.713.71-9.867-.438-11.673-3.368z" fill="#4DB9EA"/><path d="M31.05 17.55c-2.47.284-5.695-.136-8.087-1.24 2.33 1.443 6.118 1.652 8.087 1.24z" fill="#239DD8"/><path d="M20.161 12.31c-1.604 2.997-.55 6.352 1.289 8.093a8.044 8.044 0 0 0 3.498.797 8.055 8.055 0 0 0 3.817-.96c-3.465-.359-8.92-3.722-8.604-7.93z" fill="#6FCCF3"/><path d="M27.432 19.98c-1.836-.503-3.913-1.64-5.378-3.166 1.242 1.579 3.45 2.82 5.378 3.166z" fill="#C7EDFF"/><path d="M21.427 11.291c-3.264.706-4.456 2.852-4.042 4.824.01.053.023.102.035.155 1.003 2.183 2.862 3.861 5.128 4.566-2.414-2.2-4.152-7.516-1.12-9.545z" fill="#8ED3F1"/><path d="M22.548 20.835c-1.738-1.583-3.125-4.784-2.635-7.206-.53 2.178.56 5.578 2.635 7.206z" fill="#C7EDFF"/><path d="M17.372 16.162l.03.028c-.244-1.452 1.092-4.228 3.502-4.671-.083.587.24 1.108.672 1.433.447.34 1.564 1.586.73 2.021.707.118 1.362-.382.885-1.955.154-.162.32-.349.338-.424.096-.451.023-.981-.159-1.474-.899-2.422-3.943-2.201-4.024-5.567-.505 1.177-.16 2.512.338 3.423-.924-.447-1.98-.657-2.847-.458.702.22 1.657.901 2.208 1.491-.793-.081-1.402-.115-2.016.013a8.904 8.904 0 0 0 .343 6.14z" fill="#A9E0F9"/><path d="M17.388 15.548c.141-1.455 1.339-3.494 3.3-3.982-1.12.176-3.085 1.364-3.3 3.982zm1.958-9.995c-.245.745.09 2.472 1.093 2.938.602.616 2.688 3.177 3.105 3.316-.273-3.012-3.466-3.56-4.198-6.254z" fill="#C7EDFF"/><path d="M22.494 14.948c1.013 0 .82-1.095.6-1.82l.1-.104-.003-.005c.038-.04.078-.081.113-.124a.594.594 0 0 0 .126-.191c.099-.451.026-.98-.156-1.473l-3.59-2.255c.62.834 1.422 1.35 1.957 2.166.19.285.311.516.39 1.038.155.27.434.456.545.71.534 1.038.453 1.77-.082 2.058z" fill="#8ED3F1"/><path d="M22.306 14.974c.707.118 1.362-.383.885-1.955.154-.162.32-.349.338-.425.096-.45.023-.98-.159-1.473-.899-2.422-3.943-2.202-4.024-5.567-1.339 3.124.896 3.547 2.319 5.379.318.411.346.794.525 1.098.154.267.371.495.482.747.501 1.118.455 2.07-.366 2.196z" fill="#B5E8FF"/><path d="M23.37 11.12c-.9-2.422-3.944-2.201-4.025-5.567.039 3.515 2.855 3.025 4.024 5.567z" fill="#A9E0F9"/><path d="M22.672 12.778s-.128-.147-.338-.367c-.25-.257-.223-.388-.276-.637-.04-.189-.192-.514-.394-.842.571.54.935.802.927 1.607l.081.239z" fill="#fff"/><path d="M7.274 4.43C2.653 4.43 0 6.996 0 11.503v1.283h3.965v.143C2.168 13.3.428 14.556.428 17.123v4.051h4.279v-4.307c0-2.853.77-3.851 2.481-3.966V9.963h-3.08C4.364 8.68 5.42 7.91 7.103 7.91c1.968 0 3.052 1.112 3.052 3.252v10.012h4.279v-9.67c0-4.479-2.396-7.075-7.16-7.075zm30.97 16.744h3.423c4.165 0 6.39-2.796 6.39-8.415V9.022c0-2.71-1.283-4.25-3.537-4.25h-3.166v3.565h2.482v5.078c0 2.938-.714 4.393-2.169 4.393h-.57L38.13 4.772h-4.222l4.336 16.402zM66.597 7.082V3.973h-2.311c-1.284 0-2.025.542-2.111 1.854-.998-.884-2.51-1.255-4.222-1.255-3.138 0-5.42 1.312-6.59 3.223l2.654 2.34c.77-.999 1.768-1.969 3.708-1.969 1.997 0 2.824 1.027 2.824 2.653v.713h-3.737c-3.708 0-5.648 1.712-5.648 4.735 0 3.167 1.94 4.907 5.363 4.907h2.082v-3.48h-1.626c-1.055 0-1.654-.485-1.654-1.427v-.313c0-.942.627-1.484 1.683-1.484h3.537v6.704h4.222v-9.756c0-1.997-.371-3.28-1.056-3.993v-.343h2.882zm8.85-2.653c-3.137 0-5.42 1.313-6.589 3.224l2.653 2.339c.77-.998 1.769-1.968 3.708-1.968 1.997 0 2.824 1.027 2.824 2.653v.855h-4.022c-3.423 0-5.363 1.769-5.363 4.735 0 3.167 1.94 4.907 5.363 4.907h2.083v-3.48h-1.598c-1.084 0-1.683-.514-1.683-1.427v-.313c0-.942.6-1.484 1.683-1.484h3.537v6.704h4.222V10.705c0-4.193-2.253-6.276-6.817-6.276zm17.056 16.745h4.28v-10.64c0-3.937-2.254-6.105-6.276-6.105-3.167 0-5.078 1.198-6.362 3.167l2.682 2.396c.684-1.027 1.797-1.968 3.423-1.968 1.54 0 2.253 1.027 2.253 2.624v10.526zm15.084-16.745c-4.621 0-7.274 2.568-7.274 7.075v1.283h3.965v.143c-1.797.37-3.537 1.626-3.537 4.193v4.051h4.279v-4.307c0-2.853.77-3.851 2.482-3.966V9.963h-3.081c.257-1.283 1.312-2.053 2.995-2.053 1.969 0 3.053 1.112 3.053 3.252v10.012h4.278v-9.67c0-4.479-2.396-7.075-7.16-7.075z" fill="#0092D2"/><path d="M121.048 21.488c1.712 0 2.51-.97 2.51-2.282v-.57c0-1.313-.798-2.283-2.51-2.283-1.711 0-2.51.97-2.51 2.282v.57c0 1.313.799 2.283 2.51 2.283zm12.425.028c2.938 0 5.078-1.283 6.076-4.136l-3.28-1.426c-.428 1.198-1.113 2.225-2.796 2.225-1.711 0-2.596-1.198-2.596-3.081v-2.796c0-1.882.885-3.109 2.596-3.109 1.483 0 2.311.913 2.567 2.054l3.423-1.483c-.884-2.454-2.966-3.908-5.99-3.908-4.507 0-6.989 3.023-6.989 7.816 0 4.792 2.482 7.844 6.989 7.844zm14.765 0c4.393 0 7.017-3.023 7.017-7.844s-2.624-7.816-7.017-7.816c-4.393 0-7.017 2.995-7.017 7.816 0 4.82 2.624 7.844 7.017 7.844zm0-3.337c-1.654 0-2.624-1.084-2.624-2.967V12.16c0-1.883.97-2.967 2.624-2.967 1.655 0 2.624 1.084 2.624 2.967v3.052c0 1.883-.969 2.967-2.624 2.967zm10.025 2.995h4.222v-9.699c0-1.483 1.255-2.196 2.482-2.196 1.369 0 2.054.913 2.054 2.852v9.043h4.222v-9.699c0-1.483 1.226-2.196 2.481-2.196 1.398 0 2.054.913 2.054 2.852v9.043H180v-9.385c0-3.765-1.597-5.933-4.479-5.933-2.282 0-4.022 1.34-4.564 3.023h-.085c-.656-1.968-2.14-3.023-4.193-3.023-2.225 0-3.481 1.283-4.023 2.88h-.171V6.199h-4.222v14.976z" fill="#D5AB61"/></svg>