<?xml version="1.0" encoding="UTF-8"?> <svg xmlns="http://www.w3.org/2000/svg" width="368" height="56" viewBox="0 0 368 56" fill="none"><path d="M50.0768 20.7558C43.2557 29.4579 58.9537 32.4488 49.9982 39.1247C56.1591 38.4989 57.222 31.9372 54.9171 29.5455C52.9203 27.4735 49.4528 25.6384 50.0768 20.7558Z" fill="#D4AF37"></path><path d="M52.4325 21.3782C50.2821 24.9916 52.3658 27.1738 53.959 29.5354C55.5429 31.8854 55.9549 35.951 51.4362 38.4562C56.1305 40.4982 61.2706 32.8642 57.863 29.0564C55.4888 26.4044 52.5904 24.9766 52.4325 21.3782Z" fill="#148DC9"></path><path d="M52.3807 27.1796C52.8443 27.9849 53.4285 28.751 53.9587 29.5354C55.237 31.4306 55.752 34.4356 53.5374 36.8431C55.5941 34.6192 55.736 31.8854 54.1977 29.5805C53.6776 28.8052 53.0021 28.1351 52.3807 27.1796Z" fill="#0D76AB"></path><path d="M55.5039 22.6415C53.7714 27.419 58.3331 27.8029 57.4846 32.547C57.0844 34.7893 55.6246 36.7946 53.6566 37.9412C59.3446 36.9924 61.0889 30.8371 59.9567 27.9573C59.6452 27.6218 59.3083 27.3081 58.9545 27.0177C57.0726 25.4797 56.1827 25.4313 55.5039 22.6415Z" fill="#1994D1"></path><path d="M56.3644 27.9192C57.1242 29.1075 57.8757 30.3676 57.4848 32.5473C57.3421 33.3376 57.0702 34.0978 56.6911 34.8046C58.0547 32.7843 58.3628 30.3442 56.3644 27.9192Z" fill="#1282BA"></path><path d="M59.4534 27.455C60.3771 37.1636 50.0699 38.4687 49.0889 38.3911C49.5701 39.2865 59.2626 41.2952 62.2852 37.0017C62.476 36.2381 62.5756 35.4453 62.5756 34.625C62.5756 31.8019 61.3767 29.2542 59.4534 27.455Z" fill="#239DD8"></path><path d="M59.5109 28.8054C59.4535 33.3642 56.7154 35.8135 54.05 37.0919C57.4939 35.6224 59.9322 32.6374 59.5109 28.8054Z" fill="#148DC9"></path><path d="M58.9631 42.229C55.6256 42.8457 50.6037 39.5261 48.1139 37.9898C51.882 39.5528 59.7263 39.0705 62.5699 34.3197C62.5733 34.4215 62.5758 34.5233 62.5758 34.6251C62.5758 37.6844 61.1709 40.4173 58.9631 42.229Z" fill="#35ACE2"></path><path d="M53.5114 38.7708C56.4368 38.6365 59.5624 37.7018 61.5524 35.6423C59.9136 37.7711 57.1368 38.6841 53.5114 38.7708Z" fill="#1994D1"></path><path d="M46.8389 36.3525C47.657 39.244 52.0575 43.5225 55.6069 44.0432C57.7539 43.3698 59.5869 41.9987 60.8347 40.1995C56.3819 41.0107 49.0045 39.6997 46.8389 36.3525Z" fill="#4DB9EA"></path><path d="M59.9019 40.3339C56.9401 40.6568 53.0749 40.1778 50.2068 38.9177C52.9989 40.5642 57.5421 40.8037 59.9019 40.3339Z" fill="#239DD8"></path><path d="M46.8475 34.3498C44.9242 37.7712 46.1872 41.6032 48.3925 43.591C49.6674 44.1751 51.0884 44.5014 52.587 44.5014C54.2351 44.5014 55.7911 44.1059 57.1631 43.4057C53.0083 42.9952 46.4692 39.1548 46.8475 34.3498Z" fill="#6FCCF3"></path><path d="M55.5648 43.1086C53.3628 42.5336 50.873 41.2343 49.1169 39.4927C50.6062 41.2952 53.2539 42.7138 55.5648 43.1086Z" fill="#C7EDFF"></path><path d="M48.3656 33.1857C44.4523 33.991 43.0229 36.4427 43.5193 38.6942C43.5311 38.7543 43.5463 38.811 43.5615 38.8711C44.7638 41.3646 46.9927 43.2806 49.7097 44.0859C46.8146 41.5732 44.7309 35.5022 48.3656 33.1857Z" fill="#8ED3F1"></path><path d="M49.7094 44.0849C47.6257 42.2766 45.9624 38.6215 46.5501 35.8551C45.9151 38.3427 47.2204 42.2257 49.7094 44.0849Z" fill="#C7EDFF"></path><path d="M43.5039 38.7474C43.5157 38.7591 43.5284 38.7716 43.5402 38.78C43.2464 37.1218 44.8489 33.9516 47.738 33.445C47.6384 34.1159 48.0259 34.7109 48.5435 35.0823C49.0796 35.4712 50.4187 36.8932 49.419 37.3905C50.2667 37.5249 51.0519 36.9532 50.4795 35.1574C50.6644 34.9721 50.8645 34.7593 50.8856 34.6726C51.0004 34.1577 50.9126 33.5527 50.6948 32.9902C49.6166 30.2238 45.9667 30.4759 45.8696 26.6322C45.2643 27.9765 45.6788 29.5003 46.2757 30.5418C45.1672 30.0302 43.9016 29.7907 42.8622 30.0177C43.704 30.2689 44.8489 31.0475 45.5091 31.7209C44.5584 31.6283 43.8281 31.5891 43.0919 31.736C42.3498 34.0325 42.4983 36.556 43.5039 38.7474Z" fill="#A9E0F9"></path><path d="M43.5224 38.0465C43.6921 36.385 45.1274 34.0559 47.4779 33.4993C46.1355 33.7004 43.7799 35.0565 43.5224 38.0465Z" fill="#C7EDFF"></path><path d="M45.8698 26.6322C45.576 27.4825 45.9788 29.4553 47.181 29.9877C47.9021 30.6912 50.4037 33.6161 50.9035 33.7746C50.5759 30.3348 46.7479 29.7098 45.8698 26.6322Z" fill="#C7EDFF"></path><path d="M49.6437 37.3614C50.8586 37.3614 50.6281 36.1105 50.3647 35.2835C50.4044 35.2443 50.4432 35.2025 50.4829 35.1642L50.4795 35.1583C50.5251 35.1133 50.5733 35.0657 50.6155 35.0173C50.6974 34.9247 50.7582 34.8437 50.7666 34.7986C50.8848 34.2838 50.797 33.6788 50.5792 33.1163L46.275 30.5419C47.0196 31.494 47.9804 32.0832 48.6221 33.0145C48.8492 33.3408 48.9944 33.6045 49.0882 34.2003C49.2756 34.5082 49.6091 34.721 49.7425 35.0114C50.3825 36.1964 50.2854 37.0318 49.6437 37.3614Z" fill="#8ED3F1"></path><path d="M49.4191 37.3915C50.2667 37.5258 51.0519 36.9542 50.4795 35.1584C50.6644 34.9731 50.8645 34.7603 50.8856 34.6735C51.0004 34.1586 50.9126 33.5536 50.6948 32.9912C49.6166 30.2248 45.9667 30.4768 45.8697 26.6331C44.2646 30.2014 46.9444 30.6838 48.6499 32.7759C49.0315 33.2457 49.0645 33.683 49.2798 34.0301C49.4647 34.3355 49.7247 34.5959 49.8581 34.883C50.4584 36.1606 50.4035 37.2471 49.4191 37.3915Z" fill="#B5E8FF"></path><path d="M50.694 32.9902C49.6158 30.2239 45.9659 30.4759 45.8688 26.6322C45.9153 30.6461 49.2916 30.087 50.694 32.9902Z" fill="#A9E0F9"></path><path d="M30.2576 43.909C28.3225 43.909 26.8263 43.4477 25.7687 42.5252C24.7337 41.6027 24.2162 40.3089 24.2162 38.6439C24.2162 36.8438 24.8575 35.4038 26.14 34.3237C27.445 33.2437 29.4926 32.5912 32.2826 32.3662L35.7927 32.0962V31.5562C35.7927 30.4761 35.5002 29.6999 34.9152 29.2274C34.3302 28.7549 33.4302 28.5186 32.2151 28.5186C31.0451 28.5186 29.8976 28.6986 28.7726 29.0586C27.67 29.3961 26.7138 29.8011 25.9037 30.2736V26.0885C26.5562 25.7735 27.4788 25.4585 28.6713 25.1435C29.8638 24.806 31.2476 24.6372 32.8227 24.6372C34.3527 24.6372 35.714 24.8623 36.9065 25.3123C38.099 25.7398 39.0328 26.471 39.7078 27.5061C40.4053 28.5411 40.7541 29.9586 40.7541 31.7587V43.5715H35.7927V35.7413L32.8564 36.045C31.5064 36.18 30.5613 36.45 30.0213 36.8551C29.5038 37.2601 29.2451 37.8001 29.2451 38.4751C29.2451 39.1501 29.4588 39.6564 29.8863 39.9939C30.3138 40.3314 30.8876 40.5001 31.6076 40.5001C31.8776 40.5001 32.1476 40.4777 32.4176 40.4326C32.6877 40.3651 32.9352 40.2976 33.1602 40.2301L33.5989 43.4027C33.1714 43.5602 32.6652 43.684 32.0801 43.774C31.4951 43.864 30.8876 43.909 30.2576 43.909Z" fill="#0092D2"></path><path d="M72.5274 43.909C70.5248 43.909 68.961 43.504 67.836 42.694C66.7335 41.8614 65.9572 40.7139 65.5072 39.2514C65.0797 37.7663 64.8659 36.045 64.8659 34.0875C64.8659 30.8249 65.3497 28.4511 66.3172 26.9661C67.2847 25.481 68.7248 24.7385 70.6373 24.7385C71.4249 24.7385 72.1111 24.896 72.6961 25.211C73.3036 25.5035 73.7874 26.0548 74.1474 26.8648H74.2824C74.5974 26.0323 75.1149 25.4698 75.835 25.1773C76.555 24.8848 77.3312 24.7385 78.1638 24.7385C79.7163 24.7385 80.8751 25.1548 81.6401 25.9873C82.4276 26.8198 82.8214 28.0348 82.8214 29.6324V43.5715H77.7588V30.5774C77.7588 29.8799 77.6463 29.4074 77.4212 29.1599C77.1962 28.9124 76.8925 28.7886 76.51 28.7886C76.0825 28.7886 75.7562 28.9124 75.5312 29.1599C75.3287 29.4074 75.1937 29.8236 75.1262 30.4086H73.1349C73.0449 29.7786 72.8761 29.3511 72.6286 29.1261C72.3811 28.9011 72.0886 28.7886 71.7511 28.7886C71.1661 28.7886 70.7273 29.1936 70.4348 30.0036C70.1423 30.8137 69.9961 32.1862 69.9961 34.1212C69.9961 36.0338 70.2211 37.5076 70.6711 38.5426C71.1211 39.5551 71.9986 40.0614 73.3037 40.0614C73.8437 40.0614 74.2824 39.9939 74.6199 39.8589L75.1262 43.4702C74.4062 43.7627 73.5399 43.909 72.5274 43.909Z" fill="#0092D2"></path><path d="M92.7542 43.909C91.2241 43.909 90.0541 43.5602 89.2441 42.8627C88.4565 42.1427 88.0628 41.0514 88.0628 39.5889V25.076H93.1254V38.9814C93.1254 39.8139 93.5192 40.2301 94.3067 40.2301C94.6442 40.2301 95.0267 40.1514 95.4542 39.9939L95.9267 43.234C95.0717 43.684 94.0142 43.909 92.7542 43.909Z" fill="#0092D2"></path><path d="M105.784 43.909C103.781 43.909 102.217 43.504 101.092 42.694C99.9899 41.8614 99.2137 40.7139 98.7637 39.2514C98.3361 37.7663 98.1224 36.045 98.1224 34.0875C98.1224 30.8249 98.6062 28.4511 99.5737 26.9661C100.541 25.481 101.981 24.7385 103.894 24.7385C104.681 24.7385 105.368 24.896 105.953 25.211C106.56 25.5035 107.044 26.0548 107.404 26.8648H107.539C107.854 26.0323 108.371 25.4698 109.091 25.1773C109.811 24.8848 110.588 24.7385 111.42 24.7385C112.973 24.7385 114.132 25.1548 114.897 25.9873C115.684 26.8198 116.078 28.0348 116.078 29.6324V43.5715H111.015V30.5774C111.015 29.8799 110.903 29.4074 110.678 29.1599C110.453 28.9124 110.149 28.7886 109.766 28.7886C109.339 28.7886 109.013 28.9124 108.788 29.1599C108.585 29.4074 108.45 29.8236 108.383 30.4086H106.391C106.301 29.7786 106.133 29.3511 105.885 29.1261C105.638 28.9011 105.345 28.7886 105.008 28.7886C104.423 28.7886 103.984 29.1936 103.691 30.0036C103.399 30.8137 103.253 32.1862 103.253 34.1212C103.253 36.0338 103.478 37.5076 103.928 38.5426C104.378 39.5551 105.255 40.0614 106.56 40.0614C107.1 40.0614 107.539 39.9939 107.876 39.8589L108.383 43.4702C107.663 43.7627 106.796 43.909 105.784 43.909Z" fill="#0092D2"></path><path d="M128.171 44.0102C125.426 44.0102 123.389 43.3465 122.062 42.0189C120.734 40.6689 120.07 38.6776 120.07 36.045C120.07 35.6175 120.082 35.0775 120.104 34.425C120.149 33.7725 120.205 33.1987 120.273 32.7037H128.373V35.91H125.032V36.3825C125.032 37.7326 125.279 38.7226 125.774 39.3526C126.292 39.9601 127.079 40.2639 128.137 40.2639C129.262 40.2639 130.139 39.8701 130.769 39.0826C131.4 38.2951 131.715 36.8326 131.715 34.695C131.715 32.6925 131.355 31.1962 130.634 30.2061C129.937 29.1936 128.666 28.6873 126.821 28.6873C125.808 28.6873 124.762 28.8449 123.682 29.1599C122.602 29.4749 121.713 29.8236 121.015 30.2061V25.9873C121.736 25.6048 122.726 25.2898 123.986 25.0423C125.246 24.7722 126.506 24.6372 127.766 24.6372C129.948 24.6372 131.703 25.0423 133.031 25.8523C134.381 26.6398 135.36 27.7648 135.967 29.2274C136.597 30.6899 136.912 32.4224 136.912 34.425C136.912 37.5076 136.226 39.8814 134.853 41.5464C133.481 43.189 131.253 44.0102 128.171 44.0102Z" fill="#0092D2"></path><path d="M147.758 44.0102C146.431 44.0102 145.092 43.864 143.742 43.5715C142.414 43.279 141.233 42.8627 140.198 42.3227L141.615 38.3063C142.29 38.6664 143.157 39.0489 144.214 39.4539C145.272 39.8364 146.386 40.0276 147.556 40.0276C149.378 40.0276 150.289 39.4989 150.289 38.4413C150.289 37.8563 149.941 37.4063 149.243 37.0913C148.568 36.7538 147.623 36.3713 146.408 35.9438C145.215 35.5388 144.192 35.0888 143.337 34.5938C142.482 34.0987 141.818 33.4912 141.345 32.7712C140.895 32.0512 140.67 31.1399 140.67 30.0374C140.67 28.1923 141.357 26.8311 142.729 25.9535C144.124 25.076 145.98 24.6372 148.298 24.6372C149.558 24.6372 150.694 24.7498 151.707 24.9748C152.719 25.1773 153.507 25.4248 154.069 25.7173V29.6999C153.484 29.4299 152.652 29.1711 151.572 28.9236C150.514 28.6536 149.502 28.5186 148.534 28.5186C146.667 28.5186 145.733 28.9911 145.733 29.9361C145.733 30.4761 146.093 30.9037 146.813 31.2187C147.556 31.5112 148.591 31.8824 149.918 32.3324C151.673 32.94 153.012 33.6712 153.934 34.5262C154.879 35.3813 155.352 36.5963 155.352 38.1713C155.352 39.1839 155.116 40.1401 154.643 41.0402C154.193 41.9177 153.417 42.6377 152.314 43.2002C151.212 43.7402 149.693 44.0102 147.758 44.0102Z" fill="#0092D2"></path><path d="M138.724 22.5109V20.3846L142.133 18.9671H149.862V16.6383H154.182V22.5109H138.724Z" fill="#0092D2"></path><path d="M149.828 14.8495V8.57184H154.216V14.8495H149.828Z" fill="#0092D2"></path><path d="M166.239 44.0102C163.494 44.0102 161.458 43.3465 160.13 42.0189C158.803 40.6689 158.139 38.6776 158.139 36.045C158.139 35.6175 158.15 35.0775 158.173 34.425C158.218 33.7725 158.274 33.1987 158.342 32.7037H166.442V35.91H163.1V36.3825C163.1 37.7326 163.348 38.7226 163.843 39.3526C164.36 39.9601 165.148 40.2639 166.206 40.2639C167.331 40.2639 168.208 39.8701 168.838 39.0826C169.468 38.2951 169.783 36.8326 169.783 34.695C169.783 32.6925 169.423 31.1962 168.703 30.2061C168.006 29.1936 166.734 28.6873 164.889 28.6873C163.877 28.6873 162.83 28.8449 161.75 29.1599C160.67 29.4749 159.782 29.8236 159.084 30.2061V25.9873C159.804 25.6048 160.794 25.2898 162.054 25.0423C163.314 24.7722 164.574 24.6372 165.834 24.6372C168.017 24.6372 169.772 25.0423 171.099 25.8523C172.449 26.6398 173.428 27.7648 174.036 29.2274C174.666 30.6899 174.981 32.4224 174.981 34.425C174.981 37.5076 174.294 39.8814 172.922 41.5464C171.549 43.189 169.322 44.0102 166.239 44.0102Z" fill="#0092D2"></path><path d="M186.246 44.0102C183.501 44.0102 181.465 43.3465 180.137 42.0189C178.809 40.6689 178.146 38.6776 178.146 36.045C178.146 35.6175 178.157 35.0775 178.179 34.425C178.224 33.7725 178.281 33.1987 178.348 32.7037H186.448V35.91H183.107V36.3825C183.107 37.7326 183.355 38.7226 183.85 39.3526C184.367 39.9601 185.155 40.2639 186.212 40.2639C187.337 40.2639 188.215 39.8701 188.845 39.0826C189.475 38.2951 189.79 36.8326 189.79 34.695C189.79 32.6925 189.43 31.1962 188.71 30.2061C188.012 29.1936 186.741 28.6873 184.896 28.6873C183.883 28.6873 182.837 28.8449 181.757 29.1599C180.677 29.4749 179.788 29.8236 179.091 30.2061V25.9873C179.811 25.6048 180.801 25.2898 182.061 25.0423C183.321 24.7722 184.581 24.6372 185.841 24.6372C188.023 24.6372 189.778 25.0423 191.106 25.8523C192.456 26.6398 193.435 27.7648 194.042 29.2274C194.672 30.6899 194.987 32.4224 194.987 34.425C194.987 37.5076 194.301 39.8814 192.929 41.5464C191.556 43.189 189.328 44.0102 186.246 44.0102Z" fill="#0092D2"></path><path d="M205.206 43.909C203.159 43.909 201.595 43.3127 200.515 42.1202C199.435 40.9277 198.895 39.1726 198.895 36.8551V25.076H203.957V35.9775C203.957 37.2151 204.205 38.1151 204.7 38.6776C205.195 39.2401 205.915 39.5214 206.86 39.5214C208.053 39.5214 208.975 39.0714 209.628 38.1713C210.28 37.2713 210.606 35.8538 210.606 33.9187V25.076H215.669V43.5715H211.821L211.281 40.7364H210.978C210.595 41.6364 209.931 42.3902 208.986 42.9977C208.064 43.6052 206.804 43.909 205.206 43.909Z" fill="#0092D2"></path><path d="M226.587 43.909C225.057 43.909 223.887 43.5602 223.077 42.8627C222.289 42.1427 221.895 41.0514 221.895 39.5889V23.5235C221.895 22.2634 222.064 21.3297 222.402 20.7221C222.762 20.1146 223.167 19.6421 223.617 19.3046L223.583 19.1696H218.352L219.297 15.5245H230.029V19.1696C229.197 19.1696 228.477 19.4396 227.869 19.9796C227.262 20.5196 226.958 21.5097 226.958 22.9497V38.9814C226.958 39.8139 227.352 40.2301 228.139 40.2301C228.477 40.2301 228.859 40.1514 229.287 39.9939L229.759 43.234C228.904 43.684 227.847 43.909 226.587 43.909Z" fill="#0092D2"></path><path d="M237.278 43.909C235.343 43.909 233.847 43.4477 232.789 42.5252C231.754 41.6027 231.237 40.3089 231.237 38.6439C231.237 36.8438 231.878 35.4038 233.161 34.3237C234.466 33.2437 236.513 32.5912 239.303 32.3662L242.813 32.0962V31.5562C242.813 30.4761 242.521 29.6999 241.936 29.2274C241.351 28.7549 240.451 28.5186 239.236 28.5186C238.066 28.5186 236.918 28.6986 235.793 29.0586C234.691 29.3961 233.734 29.8011 232.924 30.2736V26.0885C233.577 25.7735 234.499 25.4585 235.692 25.1435C236.884 24.806 238.268 24.6372 239.843 24.6372C241.373 24.6372 242.735 24.8623 243.927 25.3123C245.12 25.7398 246.053 26.471 246.728 27.5061C247.426 28.5411 247.775 29.9586 247.775 31.7587V43.5715H242.813V35.7413L239.877 36.045C238.527 36.18 237.582 36.45 237.042 36.8551C236.524 37.2601 236.266 37.8001 236.266 38.4751C236.266 39.1501 236.479 39.6564 236.907 39.9939C237.334 40.3314 237.908 40.5001 238.628 40.5001C238.898 40.5001 239.168 40.4777 239.438 40.4326C239.708 40.3651 239.956 40.2976 240.181 40.2301L240.62 43.4027C240.192 43.5602 239.686 43.684 239.101 43.774C238.516 43.864 237.908 43.909 237.278 43.909Z" fill="#0092D2"></path><path d="M258.799 43.909C256.751 43.909 255.188 43.3127 254.108 42.1202C253.027 40.9277 252.487 39.1726 252.487 36.8551V25.076H257.55V35.9775C257.55 37.2151 257.798 38.1151 258.293 38.6776C258.788 39.2401 259.508 39.5214 260.453 39.5214C261.645 39.5214 262.568 39.0714 263.22 38.1713C263.873 37.2713 264.199 35.8538 264.199 33.9187V25.076H269.262V43.5715H265.414L264.874 40.7364H264.57C264.188 41.6364 263.524 42.3902 262.579 42.9977C261.656 43.6052 260.396 43.909 258.799 43.909Z" fill="#0092D2"></path><path d="M263 23.2535C262.82 22.9385 262.674 22.5334 262.562 22.0384C262.427 21.5434 262.359 21.0484 262.359 20.5534C262.359 19.6084 262.64 18.8096 263.203 18.1571C263.765 17.4821 264.834 17.1446 266.409 17.1446H271.303V20.5534H268.063C267.163 20.5534 266.713 20.8909 266.713 21.5659C266.713 21.8809 266.803 22.2184 266.983 22.5784L263 23.2535Z" fill="#0092D2"></path><path d="M270.735 41.5167C270.735 40.7586 270.987 40.1433 271.493 39.6709C272.009 39.1985 272.652 38.9623 273.421 38.9623C274.201 38.9623 274.844 39.1985 275.349 39.6709C275.865 40.1433 276.124 40.7586 276.124 41.5167C276.124 42.2638 275.871 42.8735 275.366 43.3459C274.86 43.8074 274.212 44.0381 273.421 44.0381C272.641 44.0381 271.998 43.8074 271.493 43.3459C270.987 42.8735 270.735 42.2638 270.735 41.5167Z" fill="#D4AF37"></path><path d="M287.725 40.3466C288.604 40.3466 289.319 40.1049 289.868 39.6215C290.417 39.1381 290.703 38.4954 290.725 37.6933H295.191C295.18 38.9019 294.85 40.0115 294.202 41.0223C293.554 42.0221 292.664 42.8021 291.532 43.3624C290.412 43.9117 289.17 44.1864 287.808 44.1864C285.259 44.1864 283.248 43.3789 281.776 41.7639C280.304 40.1378 279.568 37.8966 279.568 35.0401V34.7269C279.568 31.9803 280.299 29.7885 281.76 28.1515C283.221 26.5145 285.226 25.696 287.775 25.696C290.005 25.696 291.791 26.3332 293.131 27.6076C294.482 28.8711 295.169 30.5575 295.191 32.667H290.725C290.703 31.7441 290.417 30.997 289.868 30.4257C289.319 29.8434 288.593 29.5523 287.693 29.5523C286.583 29.5523 285.742 29.9588 285.171 30.7718C284.611 31.5738 284.331 32.8812 284.331 34.694V35.1884C284.331 37.0231 284.611 38.3415 285.171 39.1436C285.731 39.9456 286.583 40.3466 287.725 40.3466Z" fill="#D4AF37"></path><path d="M297.168 34.7764C297.168 33.0075 297.509 31.431 298.19 30.0467C298.871 28.6623 299.849 27.5911 301.124 26.8331C302.409 26.075 303.898 25.696 305.59 25.696C307.996 25.696 309.957 26.4321 311.473 27.9043C313 29.3765 313.852 31.376 314.027 33.9029L314.06 35.1225C314.06 37.8581 313.297 40.0554 311.77 41.7144C310.243 43.3624 308.194 44.1864 305.623 44.1864C303.052 44.1864 300.997 43.3624 299.459 41.7144C297.932 40.0664 297.168 37.8252 297.168 34.9906V34.7764ZM301.931 35.1225C301.931 36.8144 302.25 38.1108 302.887 39.0117C303.524 39.9016 304.436 40.3466 305.623 40.3466C306.776 40.3466 307.677 39.9071 308.325 39.0282C308.974 38.1383 309.298 36.721 309.298 34.7764C309.298 33.1174 308.974 31.832 308.325 30.9201C307.677 30.0082 306.765 29.5523 305.59 29.5523C304.425 29.5523 303.524 30.0082 302.887 30.9201C302.25 31.821 301.931 33.2218 301.931 35.1225Z" fill="#D4AF37"></path><path d="M321.46 26.0256L321.608 28.0196C322.872 26.4705 324.58 25.696 326.733 25.696C329.03 25.696 330.606 26.6023 331.463 28.4151C332.716 26.6023 334.501 25.696 336.819 25.696C338.753 25.696 340.192 26.2618 341.137 27.3934C342.082 28.514 342.554 30.206 342.554 32.4692V43.8568H337.775V32.4857C337.775 31.4749 337.577 30.7388 337.182 30.2774C336.786 29.8049 336.089 29.5687 335.089 29.5687C333.66 29.5687 332.672 30.2499 332.122 31.6122L332.139 43.8568H327.376V32.5022C327.376 31.4694 327.173 30.7223 326.766 30.2609C326.36 29.7995 325.668 29.5687 324.69 29.5687C323.339 29.5687 322.361 30.129 321.756 31.2497V43.8568H316.994V26.0256H321.46Z" fill="#D4AF37"></path></svg> 